<svg width="291" height="88" viewBox="0 0 291 88" fill="none" xmlns="http://www.w3.org/2000/svg">
<path d="M280.089 84.9896H11.7761C6.33862 84.9896 1.93237 80.5833 1.93237 75.1458V11.5833C1.93237 6.14581 6.33862 1.73956 11.7761 1.73956H280.089C285.526 1.73956 289.932 6.14581 289.932 11.5833V75.1458C289.932 80.5833 285.526 84.9896 280.089 84.9896Z" fill="black"/>
<mask id="mask0_407_1792" style="mask-type:luminance" maskUnits="userSpaceOnUse" x="0" y="0" width="291" height="88">
<path d="M0.854248 0.666626H291V87.3333H0.854248V0.666626Z" fill="white"/>
</mask>
<g mask="url(#mask0_407_1792)">
<path d="M11.7709 2.81769C6.93758 2.81769 3.00529 6.74998 3.00529 11.5833V75.1458C3.00529 79.9791 6.93758 83.9114 11.7709 83.9114H280.089C284.922 83.9114 288.854 79.9791 288.854 75.1458V11.5833C288.854 6.74998 284.922 2.81769 280.089 2.81769H11.7709ZM280.089 86.0677H11.7709C5.75008 86.0677 0.854248 81.1666 0.854248 75.1458V11.5833C0.854248 5.56248 5.75008 0.661438 11.7709 0.661438H280.089C286.109 0.661438 291.005 5.56248 291.005 11.5833V75.1458C291.005 81.1666 286.109 86.0677 280.089 86.0677Z" fill="#A7A9AB"/>
</g>
<path d="M101.469 23.0156L100.365 19.5573C100.094 18.7031 99.8645 17.75 99.6562 16.9375H99.6145C99.4114 17.75 99.1978 18.7239 98.953 19.5573L97.8697 23.0156H101.469ZM97.453 24.9479L96.2447 28.9271H93.5989L98.0989 14.8958H101.365L105.922 28.9271H103.177L101.906 24.9479" fill="white"/>
<path d="M109.75 18.7916L111.396 23.927C111.688 24.8229 111.891 25.6354 112.078 26.4687H112.141C112.328 25.6354 112.557 24.8437 112.828 23.927L114.453 18.7916H117.135L113.266 28.927H110.75L106.979 18.7916" fill="white"/>
<path d="M124.86 23.9687C123.047 23.9479 121.318 24.3229 121.318 25.8645C121.318 26.8645 121.964 27.3229 122.776 27.3229C123.813 27.3229 124.547 26.6562 124.792 25.927C124.86 25.7395 124.86 25.552 124.86 25.3645V23.9687ZM127.354 26.4895C127.354 27.4062 127.396 28.302 127.521 28.9218H125.209L125.026 27.802H124.959C124.36 28.5885 123.297 29.151 121.964 29.151C119.922 29.151 118.781 27.677 118.781 26.1354C118.781 23.5937 121.047 22.2864 124.792 22.3072V22.1406C124.792 21.4739 124.526 20.3697 122.735 20.3697C121.735 20.3697 120.693 20.6822 120.005 21.1197L119.505 19.4531C120.255 18.9947 121.568 18.5624 123.172 18.5624C126.417 18.5624 127.354 20.6197 127.354 22.8489" fill="white"/>
<path d="M130.974 18.7916H133.531V28.927H130.974V18.7916ZM132.24 17.3333C131.391 17.3333 130.828 16.7083 130.828 15.9583C130.828 15.1666 131.406 14.5624 132.266 14.5624C133.136 14.5624 133.677 15.1666 133.698 15.9583C133.698 16.7083 133.136 17.3333 132.266 17.3333" fill="white"/>
<path d="M137.214 28.927H139.776V14.1249H137.214V28.927Z" fill="white"/>
<path d="M148.849 23.9687C147.036 23.9479 145.307 24.3229 145.307 25.8645C145.307 26.8645 145.953 27.3229 146.766 27.3229C147.807 27.3229 148.536 26.6562 148.786 25.927C148.849 25.7395 148.849 25.552 148.849 25.3645V23.9687ZM151.344 26.4895C151.344 27.4062 151.385 28.302 151.51 28.9218H149.203L149.016 27.802H148.953C148.349 28.5885 147.286 29.151 145.953 29.151C143.917 29.151 142.771 27.677 142.771 26.1354C142.771 23.5937 145.042 22.2864 148.786 22.3072V22.1406C148.786 21.4739 148.516 20.3697 146.724 20.3697C145.724 20.3697 144.682 20.6822 144 21.1197L143.5 19.4531C144.25 18.9947 145.557 18.5624 147.161 18.5624C150.406 18.5624 151.344 20.6197 151.344 22.8489" fill="white"/>
<path d="M157.526 24.7395C157.526 24.9479 157.547 25.1562 157.588 25.3437C157.859 26.3854 158.755 27.1354 159.854 27.1354C161.458 27.1354 162.437 25.8645 162.437 23.8072C162.437 22.0156 161.583 20.5572 159.875 20.5572C158.833 20.5572 157.88 21.3072 157.609 22.4322C157.568 22.6197 157.526 22.8489 157.526 23.0989V24.7395ZM154.963 14.1249H157.526V20.1822H157.568C158.193 19.2031 159.292 18.5624 160.812 18.5624C163.292 18.5624 165.057 20.6197 165.036 23.7031C165.036 27.3437 162.729 29.1562 160.437 29.1562C159.125 29.1562 157.963 28.6562 157.234 27.4062H157.193L157.068 28.927H154.88C154.922 28.2395 154.963 27.1145 154.963 26.0937" fill="white"/>
<path d="M168.052 28.927H170.609V14.1249H168.052V28.927Z" fill="white"/>
<path d="M180.578 22.7864C180.599 21.8489 180.182 20.3072 178.479 20.3072C176.896 20.3072 176.229 21.7447 176.125 22.7864H180.578ZM176.125 24.5729C176.188 26.4062 177.625 27.1979 179.25 27.1979C180.432 27.1979 181.266 27.0104 182.057 26.7395L182.432 28.4843C181.557 28.8645 180.349 29.1301 178.896 29.1301C175.604 29.1301 173.667 27.1145 173.667 24.0156C173.667 21.2031 175.375 18.5624 178.625 18.5624C181.912 18.5624 182.995 21.2656 182.995 23.4947C182.995 23.9739 182.953 24.3489 182.912 24.5729" fill="white"/>
<path d="M195.709 27.302C197.162 27.302 198.183 25.8854 198.183 23.8281C198.183 22.2447 197.474 20.4114 195.729 20.4114C193.917 20.4114 193.188 22.1822 193.188 23.8697C193.188 25.8229 194.167 27.302 195.683 27.302H195.709ZM195.625 29.1562C192.771 29.1562 190.547 27.1979 190.547 23.9322C190.547 20.5989 192.729 18.5624 195.792 18.5624C198.808 18.5624 200.828 20.6822 200.828 23.7656C200.828 27.4895 198.203 29.1562 195.646 29.1562" fill="white"/>
<path d="M203.839 21.8072C203.839 20.6406 203.802 19.6614 203.76 18.7864H205.984L206.109 20.3072H206.172C206.63 19.5156 207.734 18.5624 209.422 18.5624C211.188 18.5624 213.021 19.7031 213.021 22.9114V28.9218H210.458V23.2031C210.458 21.7447 209.917 20.6406 208.526 20.6406C207.505 20.6406 206.797 21.3697 206.526 22.1406C206.443 22.3489 206.401 22.6614 206.401 22.9531V28.9218H203.839" fill="white"/>
<path d="M224.818 16.1874V18.7864H227.25V20.7031H224.818V25.1562C224.818 26.4062 225.151 27.0312 226.125 27.0312C226.584 27.0312 226.834 27.0104 227.125 26.927L227.167 28.8593C226.792 29.0104 226.104 29.1301 225.313 29.1301C224.36 29.1301 223.589 28.8176 223.11 28.302C222.547 27.7187 222.297 26.7812 222.297 25.4479V20.7031H220.86V18.7864H222.297V16.8958" fill="white"/>
<path d="M230.099 14.1249H232.661V20.1614H232.703C233.016 19.6822 233.453 19.2864 233.974 19.0156C234.495 18.7291 235.094 18.5624 235.74 18.5624C237.469 18.5624 239.276 19.7031 239.276 22.9531V28.927H236.719V23.2239C236.719 21.7656 236.177 20.6406 234.76 20.6406C233.766 20.6406 233.057 21.3072 232.766 22.0781C232.682 22.3072 232.661 22.5781 232.661 22.8489V28.927H230.099" fill="white"/>
<path d="M249.182 22.7864C249.203 21.8489 248.786 20.3072 247.078 20.3072C245.495 20.3072 244.833 21.7447 244.729 22.7864H249.182ZM244.729 24.5729C244.792 26.4062 246.224 27.1979 247.849 27.1979C249.036 27.1979 249.87 27.0104 250.656 26.7395L251.036 28.4843C250.161 28.8645 248.953 29.1301 247.495 29.1301C244.208 29.1301 242.271 27.1145 242.271 24.0156C242.271 21.2031 243.979 18.5624 247.224 18.5624C250.51 18.5624 251.594 21.2656 251.594 23.4947C251.594 23.9739 251.552 24.3489 251.51 24.5729" fill="white"/>
<path d="M65.6096 42.5312C65.5419 35.5885 71.2919 32.2083 71.5575 32.052C68.3023 27.302 63.2554 26.6562 61.4794 26.6041C57.245 26.1614 53.1357 29.1458 50.9794 29.1458C48.7763 29.1458 45.4482 26.651 41.87 26.7239C37.2554 26.7968 32.9429 29.4687 30.5784 33.6093C25.7034 42.0625 29.3388 54.4791 34.0159 61.3125C36.3596 64.6562 39.0888 68.3958 42.6669 68.2604C46.1669 68.1145 47.4742 66.0312 51.6982 66.0312C55.8857 66.0312 57.1148 68.2604 60.7659 68.177C64.5211 68.1145 66.8857 64.8177 69.1409 61.4375C71.8492 57.6041 72.9325 53.8281 72.9742 53.6354C72.8857 53.6041 65.6825 50.8541 65.6096 42.5312Z" fill="white"/>
<path d="M58.7135 22.1146C60.5937 19.7604 61.8906 16.5521 61.526 13.3021C58.8021 13.4271 55.3958 15.1875 53.4323 17.4896C51.6979 19.5208 50.1406 22.8489 50.5469 25.9739C53.6094 26.2031 56.75 24.4323 58.7135 22.1146Z" fill="white"/>
<path d="M107.849 55.7864L105.432 48.3229C105.177 47.5624 104.698 45.7656 103.99 42.9426H103.906C103.625 44.1562 103.167 45.9531 102.547 48.3229L100.172 55.7864H107.849ZM116.203 67.7083H111.323L108.651 59.3124H99.3699L96.823 67.7083H92.073L101.281 39.1249H106.958" fill="white"/>
<path d="M135.203 57.3176C135.203 55.3072 134.75 53.6562 133.844 52.3541C132.854 50.9999 131.526 50.3176 129.859 50.3176C128.729 50.3176 127.698 50.6979 126.786 51.4426C125.87 52.1979 125.266 53.177 124.979 54.3958C124.838 54.9583 124.771 55.4218 124.771 55.7864V59.2239C124.771 60.7239 125.229 61.9895 126.146 63.0208C127.068 64.0572 128.26 64.5676 129.729 64.5676C131.458 64.5676 132.802 63.9062 133.755 62.5729C134.724 61.2447 135.203 59.4947 135.203 57.3176ZM139.87 57.1458C139.87 60.651 138.922 63.427 137.026 65.4583C135.328 67.2708 133.219 68.1718 130.708 68.1718C127.99 68.1718 126.042 67.1926 124.854 65.2447H124.771V76.1041H120.187V53.8801C120.187 51.677 120.135 49.4166 120.021 47.0937H124.047L124.302 50.3645H124.391C125.917 47.901 128.234 46.6718 131.344 46.6718C133.771 46.6718 135.807 47.6354 137.427 49.5572C139.052 51.4843 139.87 54.0104 139.87 57.1458Z" fill="white"/>
<path d="M158.906 57.3176C158.906 55.3072 158.453 53.6562 157.547 52.3541C156.557 50.9999 155.229 50.3176 153.563 50.3176C152.432 50.3176 151.406 50.6979 150.49 51.4426C149.568 52.1979 148.974 53.177 148.693 54.3958C148.547 54.9583 148.479 55.4218 148.479 55.7864V59.2239C148.479 60.7239 148.932 61.9895 149.849 63.0208C150.771 64.0572 151.964 64.5676 153.438 64.5676C155.162 64.5676 156.505 63.9062 157.464 62.5729C158.422 61.2447 158.906 59.4947 158.906 57.3176ZM163.568 57.1458C163.568 60.651 162.625 63.427 160.729 65.4583C159.031 67.2708 156.927 68.1718 154.412 68.1718C151.698 68.1718 149.75 67.1926 148.557 65.2447H148.479V76.1041H143.896V53.8801C143.896 51.677 143.839 49.4166 143.729 47.0937H147.755L148.01 50.3645H148.099C149.62 47.901 151.938 46.6718 155.047 46.6718C157.479 46.6718 159.505 47.6354 161.135 49.5572C162.76 51.4843 163.568 54.0104 163.568 57.1458Z" fill="white"/>
<path d="M190.078 59.6927C190.078 62.1198 189.234 64.0989 187.537 65.6302C185.672 67.2968 183.083 68.1302 179.755 68.1302C176.677 68.1302 174.208 67.5364 172.339 66.3489L173.401 62.5364C175.417 63.75 177.62 64.3541 180.026 64.3541C181.75 64.3541 183.094 63.9687 184.057 63.1927C185.016 62.4114 185.495 61.3698 185.495 60.0677C185.495 58.9114 185.104 57.927 184.313 57.1354C183.521 56.3437 182.203 55.6093 180.365 54.927C175.359 53.0573 172.859 50.3229 172.859 46.7291C172.859 44.3802 173.734 42.4531 175.49 40.9531C177.24 39.4531 179.573 38.6979 182.484 38.6979C185.089 38.6979 187.25 39.1562 188.974 40.0573L187.828 43.7916C186.219 42.9166 184.396 42.4739 182.359 42.4739C180.745 42.4739 179.49 42.8698 178.589 43.6614C177.828 44.3698 177.443 45.2343 177.443 46.25C177.443 47.3802 177.875 48.3125 178.755 49.0468C179.516 49.7239 180.901 50.4583 182.912 51.2552C185.37 52.2448 187.177 53.401 188.339 54.7291C189.495 56.0573 190.078 57.7135 190.078 59.6927Z" fill="white"/>
<path d="M205.213 50.5312H200.167V60.5364C200.167 63.0833 201.057 64.3541 202.844 64.3541C203.656 64.3541 204.338 64.2864 204.875 64.1458L205 67.6198C204.104 67.9635 202.911 68.1302 201.443 68.1302C199.635 68.1302 198.219 67.5781 197.198 66.4791C196.182 65.375 195.672 63.5208 195.672 60.9218V50.5312H192.661V47.0937H195.672V43.3229L200.167 41.9635V47.0937H205.213" fill="white"/>
<path d="M223.24 57.3801C223.24 55.4791 222.828 53.8541 222.005 52.4895C221.052 50.8437 219.677 50.0208 217.896 50.0208C216.057 50.0208 214.656 50.8437 213.698 52.4895C212.875 53.8541 212.474 55.5104 212.474 57.4687C212.474 59.3697 212.875 60.9947 213.698 62.3541C214.688 63.9999 216.073 64.8229 217.859 64.8229C219.604 64.8229 220.979 63.9895 221.969 62.3124C222.818 60.927 223.24 59.2812 223.24 57.3801ZM227.99 57.2343C227.99 60.401 227.089 62.9999 225.276 65.0364C223.38 67.1301 220.865 68.1718 217.729 68.1718C214.698 68.1718 212.292 67.1666 210.495 65.1614C208.703 63.1562 207.807 60.6249 207.807 57.5729C207.807 54.3749 208.729 51.7604 210.583 49.7291C212.432 47.6874 214.927 46.6718 218.063 46.6718C221.089 46.6718 223.526 47.677 225.359 49.6822C227.115 51.6406 227.99 54.151 227.99 57.2343Z" fill="white"/>
<path d="M242.875 51.1249C242.422 51.0416 241.943 50.9999 241.432 50.9999C239.823 50.9999 238.573 51.6093 237.698 52.8229C236.937 53.901 236.557 55.2551 236.557 56.8906V67.7083H231.979L232.016 53.5885C232.016 51.2083 231.958 49.0468 231.849 47.0937H235.838L236.005 51.0416H236.125C236.609 49.6874 237.375 48.5937 238.417 47.776C239.437 47.0416 240.542 46.6718 241.729 46.6718C242.151 46.6718 242.536 46.7031 242.875 46.7551" fill="white"/>
<path d="M258.984 55.2396C259.016 53.8854 258.719 52.7083 258.099 51.7187C257.307 50.4479 256.083 49.8073 254.448 49.8073C252.953 49.8073 251.734 50.4323 250.802 51.6771C250.042 52.6666 249.583 53.8541 249.453 55.2396H258.984ZM263.349 56.4271C263.349 57.25 263.297 57.9375 263.187 58.5052H249.453C249.5 60.5416 250.167 62.0989 251.443 63.1719C252.599 64.1354 254.099 64.6094 255.937 64.6094C257.969 64.6094 259.823 64.2864 261.495 63.6354L262.213 66.8177C260.26 67.6614 257.958 68.0937 255.297 68.0937C252.104 68.0937 249.594 67.151 247.771 65.2656C245.953 63.3906 245.036 60.8646 245.036 57.6979C245.036 54.5885 245.88 52 247.583 49.9375C249.359 47.7291 251.766 46.6302 254.786 46.6302C257.755 46.6302 260.01 47.7291 261.536 49.9375C262.75 51.6875 263.349 53.8541 263.349 56.4271Z" fill="white"/>
</svg>
