<svg width="120" height="42" viewBox="0 0 120 42" fill="none" xmlns="http://www.w3.org/2000/svg">
<path d="M30.2065 15.192L29.8478 16.041C29.7917 16.1793 29.6971 16.2974 29.576 16.3804C29.4548 16.4635 29.3124 16.5078 29.1667 16.5078C29.0211 16.5078 28.8787 16.4635 28.7575 16.3804C28.6364 16.2974 28.5418 16.1793 28.4857 16.041L28.127 15.192C27.4962 13.6901 26.3411 12.4859 24.8895 11.817L23.7826 11.3085C23.6483 11.245 23.5345 11.1432 23.4548 11.0152C23.3751 10.8872 23.3327 10.7383 23.3327 10.5863C23.3327 10.4342 23.3751 10.2854 23.4548 10.1574C23.5345 10.0294 23.6483 9.92757 23.7826 9.86403L24.8282 9.38553C26.3163 8.6976 27.4912 7.44886 28.1109 5.89653L28.4799 4.98003C28.5341 4.83807 28.6286 4.71618 28.7511 4.63027C28.8736 4.54436 29.0185 4.49841 29.1667 4.49841C29.315 4.49841 29.4599 4.54436 29.5824 4.63027C29.7049 4.71618 29.7994 4.83807 29.8536 4.98003L30.2226 5.89503C30.8416 7.44765 32.016 8.69693 33.5038 9.38553L34.5509 9.86553C34.6848 9.92925 34.7981 10.031 34.8776 10.1589C34.957 10.2867 34.9992 10.4353 34.9992 10.587C34.9992 10.7388 34.957 10.8873 34.8776 11.0152C34.7981 11.143 34.6848 11.2448 34.5509 11.3085L33.4426 11.8155C31.9913 12.4851 30.8366 13.6898 30.2065 15.192ZM29.1667 19.5C30.1566 19.5008 31.1393 19.3289 32.0732 18.9915C32.08 19.1615 32.0834 19.331 32.0834 19.5C32.0834 22.6826 30.8543 25.7349 28.6663 27.9853C26.4784 30.2358 23.5109 31.5 20.4167 31.5V36.75C13.1251 33.75 2.91675 29.25 2.91675 19.5C2.91675 16.3174 4.14591 13.2652 6.33384 11.0148C8.52176 8.76432 11.4892 7.50003 14.5834 7.50003H20.4167C20.582 7.50003 20.7468 7.50353 20.9111 7.51053C20.4464 8.86792 20.3049 10.3201 20.4985 11.7454C20.6921 13.1707 21.2151 14.5274 22.0238 15.7018C22.8324 16.8761 23.9031 17.834 25.146 18.4948C26.3888 19.1557 27.7676 19.5004 29.1667 19.5Z" fill="#FEF7FF"/>
<path d="M47.04 32.5V8.7H56.016C57.3193 8.7 58.498 9.03433 59.552 9.703C60.6173 10.3603 61.4617 11.2443 62.085 12.355C62.7083 13.4543 63.02 14.6613 63.02 15.976C63.02 17.3133 62.697 18.5317 62.051 19.631C61.4163 20.7303 60.5663 21.6087 59.501 22.266C58.4357 22.9233 57.274 23.252 56.016 23.252H52.14V32.5H47.04ZM52.14 18.152H55.438C55.8913 18.152 56.305 18.0387 56.679 17.812C57.053 17.574 57.3533 17.2623 57.58 16.877C57.8067 16.4917 57.92 16.0667 57.92 15.602C57.92 15.1373 57.8067 14.7123 57.58 14.327C57.3533 13.9417 57.053 13.6357 56.679 13.409C56.305 13.171 55.8913 13.052 55.438 13.052H52.14V18.152ZM70.1366 8.7H75.8826L84.5186 32.5H79.1126L77.7526 28.76H68.2666L66.9066 32.5H61.5006L70.1366 8.7ZM70.1366 23.66H75.8826L72.9926 15.772L70.1366 23.66ZM94.5077 8.7H100.254L108.89 32.5H103.484L102.124 28.76H92.6377L91.2777 32.5H85.8717L94.5077 8.7ZM94.5077 23.66H100.254L97.3637 15.772L94.5077 23.66ZM112.097 32.5V8.7H117.197V32.5H112.097Z" fill="#FEF7FF"/>
</svg>
